<svg width="600" height="365" viewBox="0 0 600 365" fill="none" xmlns="http://www.w3.org/2000/svg">
<rect width="600" height="365" rx="10" fill="#0F1017"/>
<circle cx="95" cy="152" r="49.5" fill="#25292F" stroke="#30363D"/>
<rect x="55" y="214" width="80" height="6" rx="3" fill="white"/>
<rect x="55" y="226.471" width="25" height="3.11765" rx="1.55882" fill="white"/>
<rect x="85" y="224.912" width="50" height="6.23529" rx="3.11765" fill="white"/>
<rect x="55" y="236.147" width="40" height="4.67647" rx="2.33824" fill="white"/>
<rect x="100" y="236.147" width="35" height="4.67647" rx="2.33824" fill="white"/>
<rect x="55" y="245.824" width="20" height="4.67647" rx="2.33824" fill="white"/>
<rect x="80" y="245.824" width="35" height="4.67647" rx="2.33824" fill="white"/>
<rect x="120" y="245.824" width="15" height="4.67647" rx="2.33824" fill="white"/>
<g filter="url(#filter0_d_1_42)">
<rect x="251" y="15" width="97" height="10" rx="2" fill="#1C1D27"/>
<rect x="251.5" y="15.5" width="96" height="9" rx="1.5" stroke="#30363D"/>
</g>
<rect x="45" y="20" width="20" height="5" rx="2" fill="white"/>
<rect x="67" y="20" width="15" height="5" rx="2" fill="#64FF9F"/>
<rect x="180" y="102" width="20" height="3" rx="1.5" fill="white"/>
<rect x="264" y="102" width="20" height="3" rx="1.5" fill="white"/>
<rect x="236" y="102" width="20" height="3" rx="1.5" fill="white"/>
<rect x="208" y="102" width="20" height="3" rx="1.5" fill="white"/>
<rect x="180.5" y="113.5" width="239" height="137" rx="3.5" fill="#25292F" stroke="#30363D"/>
<rect x="190" y="223" width="38" height="4" rx="2" fill="white"/>
<rect x="190" y="236" width="61" height="3" rx="1.5" fill="white"/>
<rect x="455.5" y="113.5" width="106" height="157" rx="7.5" fill="#25292F" stroke="#30363D"/>
<rect x="464" y="125" width="38" height="4" rx="2" fill="white"/>
<circle cx="550" cy="127" r="4" fill="#64FF9F"/>
<rect x="464" y="149" width="38" height="3" rx="1.5" fill="white"/>
<rect x="464" y="250" width="38" height="3" rx="1.5" fill="white"/>
<rect x="464" y="233" width="49" height="3" rx="1.5" fill="white"/>
<rect x="464" y="166" width="49" height="3" rx="1.5" fill="white"/>
<rect x="464" y="182" width="38" height="3" rx="1.5" fill="white"/>
<rect x="464" y="199" width="32" height="3" rx="1.5" fill="white"/>
<rect x="464" y="216" width="63" height="3" rx="1.5" fill="white"/>
<defs>
<filter id="filter0_d_1_42" x="247" y="15" width="105" height="18" filterUnits="userSpaceOnUse" color-interpolation-filters="sRGB">
<feFlood flood-opacity="0" result="BackgroundImageFix"/>
<feColorMatrix in="SourceAlpha" type="matrix" values="0 0 0 0 0 0 0 0 0 0 0 0 0 0 0 0 0 0 127 0" result="hardAlpha"/>
<feOffset dy="4"/>
<feGaussianBlur stdDeviation="2"/>
<feComposite in2="hardAlpha" operator="out"/>
<feColorMatrix type="matrix" values="0 0 0 0 0 0 0 0 0 0 0 0 0 0 0 0 0 0 0.25 0"/>
<feBlend mode="normal" in2="BackgroundImageFix" result="effect1_dropShadow_1_42"/>
<feBlend mode="normal" in="SourceGraphic" in2="effect1_dropShadow_1_42" result="shape"/>
</filter>
</defs>
</svg>
